# xmcd
#
# Track frame offsets:
#	150
#	12872
#	31648
#	51999
#	69081
#	87134
#	111635
#	135752
#	160131
#
# Disc length: 2713 seconds
#
# Revision: 1
# Processed by: cddbd v1.5.2PL0 Copyright (c) Steve Scherf et al.
# Submitted via: audiograbber 1.83.01
#
DISCID=630a9709
DTITLE=Stone, Joss - Introducing Joss Stone - Bonus CD
DYEAR=2007
DGENRE=Neo-Soul, R&B
TTITLE0=L-O-V-E
TTITLE1=Gimme Shelter (Joss Stone and Angelique Kidjo)
TTITLE2=Big Ol' Game
TTITLE3=My God
TTITLE4=Music (Live from Bowery Ballroom)
TTITLE5=Super Duper Love (Live from Bowery Ballroom)
TTITLE6=Tell Me 'bout It (Live from Bowery Ballroom)
TTITLE7=What We Were Thinking (Live from Bowery Ballroom)
TTITLE8=Tell Me 'bout it (Yam who? Club Rework)
EXTD=
EXTT0=
EXTT1=
EXTT2=
EXTT3=
EXTT4=
EXTT5=
EXTT6=
EXTT7=
EXTT8=
PLAYORDER=
